<svg xmlns="http://www.w3.org/2000/svg" version="1.1" xmlns:xlink="http://www.w3.org/1999/xlink" xmlns:svgjs="http://svgjs.dev/svgjs" width="100%" height="100%" viewBox="0 0 1000 600"><rect width="1000" height="600" x="0" y="0" fill="#ffffff"/><g><rect width="333.3333333333333" height="333.3333333333333" y="316.6581934042176" fill="#fffff" transform="matrix(0.42454054403654584,0,0,0.42454054403654584,0,94.80900211053934)" x="294.4359436035156"/><path d="M443.8373282831443 497.4209575542072L431.9321290112938 497.4209575542072L431.9321290112938 558.3248704958496L411.09803028555547 558.3248704958496L411.09803028555547 430.343978323457L407.6256804979324 410.5019795370396Q410.90512196402085 410.11616289397034 415.50736334920384 409.7027879192533Q420.13716306603453 409.31697127618406 425.12522109428676 409.01382962805826Q430.1408374541867 408.71068797993246 435.2115704773823 408.5177796583978Q440.25474516893007 408.3248713368632 444.52628657433934 408.3248713368632L444.52628657433934 408.3248713368632Q457.03776914244145 408.3248713368632 467.3445851787194 410.94291284340443Q477.6789595466452 413.5885126815934 485.00947576496054 418.74192069973236Q492.33999198327587 423.89532871787134 496.4186250671506 431.58410324760814Q500.4972581510253 439.2728777773449 500.4972581510253 449.3041104971448L500.4972581510253 449.3041104971448Q500.4972581510253 459.721159860014 497.2729333482324 467.65795937458097Q494.0486085454396 475.59475888914795 488.1786839044578 481.1891002136518Q482.3363175951237 486.7834415381556 474.2341680906699 490.3109079890742Q466.15957691786394 493.8383744399929 456.54171917278103 495.5194326705088L456.54171917278103 495.5194326705088L470.6240266448079 499.48783242779234L514.5795656230521 558.3248704958496L492.45022530986705 558.3248704958496L448.49468633162286 499.2949241062577Q447.41991139735853 497.9170075238676 446.01443648332065 497.66898253903736Q444.6365199009306 497.4209575542072 443.8373282831443 497.4209575542072L443.8373282831443 497.4209575542072ZM429.94792913265206 423.0134621051417L431.9321290112938 444.53651912207505L431.9321290112938 482.42922513780286L446.6207197795723 482.42922513780286Q455.63229422840357 482.42922513780286 462.30141048717167 479.8938586262051Q468.94296841429195 477.3584921146073 473.29718481464465 473.0593923775502Q477.6789595466452 468.7327343088453 479.85606774682157 463.0281596577502Q482.0331759469979 457.3235850066552 482.0331759469979 450.87493540106954L482.0331759469979 450.87493540106954Q482.0331759469979 442.44208591684213 478.86396780750067 436.8477445923383Q475.6947596680035 431.2258449361867 470.6240266448079 427.9188451384505Q465.5532936216123 424.58428700906643 459.32511066920904 423.2614870899719Q453.069369385158 421.9111288392296 447.00653642264155 421.9111288392296L447.00653642264155 421.9111288392296Q444.9396615490564 421.9111288392296 442.6523200222888 421.9662455025252Q440.36497849552126 422.02136216582085 438.07763696875367 422.1040371607642Q435.79029544198613 422.2142704873554 433.66830390510535 422.46229547218564Q431.54631236822456 422.7103204570159 429.94792913265206 423.0134621051417L429.94792913265206 423.0134621051417Z " fill="#ce8946" transform="matrix(0.42454054403654584,0,0,0.42454054403654584,0,94.80900211053934)"/><path d="M733.0948129280757 525.616555908993L732.1784715701122 542.1107003523362L791.7406598377406 542.1107003523362L789.9079771218137 556.7721620797524L712.0189616949149 556.7721620797524L713.8516444108419 538.4453349204821L713.8516444108419 438.56412690245895L711.1026203369513 419.32095838522514L733.0948129280757 417.4882756692981L733.0948129280757 525.616555908993ZM893.4545505716909 556.7721620797524L829.3106555142448 556.7721620797524L829.3106555142448 542.1107003523362L851.7610187843509 542.1107003523362L851.7610187843509 453.5819436024165L857.0808894458613 432.7860855619668L844.6084654069135 449.8402163907322L825.187119403409 467.0725247057683L815.2855419520811 455.97461270376573L857.259066932132 417.4882756692981L871.0041873015848 419.32095838522514L871.0041873015848 542.1107003523362L893.4545505716909 542.1107003523362L893.4545505716909 556.7721620797524ZM934.689911680049 515.994971650376L934.689911680049 501.79168060194144L980.5069795782248 501.79168060194144L980.5069795782248 515.994971650376L934.689911680049 515.994971650376ZM1046.483557351598 500.5189842714366L1035.4874610560357 500.5189842714366L1035.4874610560357 556.7721620797524L1016.2442925388018 556.7721620797524L1016.2442925388018 438.56412690245895L1013.0370977859295 420.2372997431886Q1016.0661150525311 419.88094477064726 1020.3169207964174 419.4991358714958Q1024.593180466914 419.14278089895447 1029.2003411833416 418.86278770624335Q1033.8329558263792 418.5827945135323 1038.5164783226373 418.4046170272616Q1043.1745468922852 418.2264395409909 1047.1199055168504 418.2264395409909L1047.1199055168504 418.2264395409909Q1058.6759881978346 418.2264395409909 1068.1957567500112 420.6445625689502Q1077.7409792287979 423.08813952351954 1084.5117237070838 427.84802379960786Q1091.2824681853697 432.60790807569606 1095.0496493236642 439.7095535999133Q1098.8168304619587 446.81119912413055 1098.8168304619587 456.0764284102061L1098.8168304619587 456.0764284102061Q1098.8168304619587 465.698012668823 1095.838721048577 473.0287435325311Q1092.8606116351957 480.35947439623925 1087.438925267245 485.52662149808907Q1082.0426928259044 490.6937685999389 1074.5592384025356 493.9518712060314Q1067.101237905777 497.2099738121239 1058.2178175188528 498.7626633353398L1058.2178175188528 498.7626633353398L1071.2247740166129 502.4280287671939L1111.8237869597185 556.7721620797524L1091.3842838918101 556.7721620797524L1050.7852709487042 502.2498512809232Q1049.7925678109104 500.9771549504183 1048.4944175537955 500.7480696109274Q1047.2217212232908 500.5189842714366 1046.483557351598 500.5189842714366L1046.483557351598 500.5189842714366ZM1033.6547783401086 431.79338242417293L1035.4874610560357 451.6728991066592L1035.4874610560357 486.6720481955435L1049.0544039392178 486.6720481955435Q1057.3778379407197 486.6720481955435 1063.5376881803631 484.3302869474145Q1069.6720844933968 481.9885256992855 1073.6938048977922 478.01771314811026Q1077.7409792287979 474.02144667032496 1079.7518394309955 468.75248386203475Q1081.7626996331933 463.48352105374454 1081.7626996331933 457.52730222698165L1081.7626996331933 457.52730222698165Q1081.7626996331933 449.7384006842918 1078.8354980730319 444.571253582442Q1075.9082965128707 439.3786525539821 1071.2247740166129 436.32418136077035Q1066.5412515203548 433.2442562409485 1060.7886641064727 432.0224677636638Q1055.0106227659805 430.775225359769 1049.410758911759 430.775225359769L1049.410758911759 430.775225359769Q1047.5017144160017 430.775225359769 1045.3890385073637 430.82613321298925Q1043.2763625987254 430.8770410662095 1041.1636866900874 430.95340284603975Q1039.0510107814493 431.05521855248014 1037.091058432472 431.28430389197104Q1035.1311060834944 431.5133892314619 1033.6547783401086 431.79338242417293L1033.6547783401086 431.79338242417293ZM1276.3834224939997 535.6963108465916L1283.459614091607 547.2523935275758Q1275.9252518150179 553.284974134169 1266.863653941823 555.8049128685686Q1257.8020560686284 558.3248516029682 1246.9841372593369 558.3248516029682L1246.9841372593369 558.3248516029682Q1233.7735493486962 558.3248516029682 1223.235623732116 552.5977181156964Q1212.6976981155353 546.8705846284245 1205.3669672518272 537.0708228835367Q1198.036236388119 527.2710611386492 1194.141785616774 514.162288934449Q1190.2473348454294 501.05351673024865 1190.2473348454294 486.2138775165617L1190.2473348454294 486.2138775165617Q1190.2473348454294 472.3669414406686 1193.7854306442327 459.970879181551Q1197.3235264430364 447.5493629958234 1204.552441600304 438.1568640766974Q1211.781356757572 428.7643651575713 1222.8792687595746 423.2663170097902Q1233.977180761577 417.76826886200917 1249.0968131679751 417.76826886200917L1249.0968131679751 417.76826886200917Q1259.6347387845553 417.76826886200917 1269.0272377036813 421.10273324793195Q1278.4197366228075 424.46265156046485 1285.012303614823 430.775225359769L1285.012303614823 430.775225359769L1276.7652313931512 440.57498710465666Q1272.3617020896043 437.64778554449543 1265.7182272443688 435.458747856027Q1259.0747523991333 433.2442562409485 1250.5476869847507 433.2442562409485L1250.5476869847507 433.2442562409485Q1239.3734132029176 433.2442562409485 1231.584511660228 437.4696080582247Q1223.795610117538 441.66950594889084 1218.857548355179 448.8729671795485Q1213.89403266621 456.0764284102061 1211.6540871245213 465.64710481560286Q1209.4141415828328 475.21778122099954 1209.4141415828328 485.93388432385063L1209.4141415828328 485.93388432385063Q1209.4141415828328 492.2719120497649 1210.4068447206266 498.91538689500044Q1211.4250017850306 505.5588617402359 1213.4867698404485 511.87143553954013Q1215.5485378958665 518.1840093388444 1218.806640501959 523.7838731930658Q1222.0647431080513 529.3837370472872 1226.4937263382085 533.5836349379534Q1230.9481634949755 537.8089867552296 1236.6243891290273 540.278017636409Q1242.300614763079 542.7470485175886 1249.351352434076 542.7470485175886L1249.351352434076 542.7470485175886Q1253.4748885449117 542.7470485175886 1256.885714710665 542.3906935450473Q1260.2710869498078 542.0088846458957 1263.42737384946 541.1943589943726Q1266.5836607491121 540.3798333428495 1269.7144937221542 539.0307752325143Q1272.819872768586 537.7071710487892 1276.3834224939997 535.6963108465916L1276.3834224939997 535.6963108465916ZM1327.8003542463969 408.32486208966293L1327.8003542463969 522.3075454496802Q1327.8003542463969 528.3655799828834 1328.4876102648698 532.4382082404991Q1329.1748662833422 536.5108364981147 1330.4984704670671 539.0307752325143Q1331.8220746507925 541.5507139669139 1333.80748092638 542.6197788845382Q1335.7674332753575 543.6633898755521 1338.3382798629775 543.6633898755521L1338.3382798629775 543.6633898755521Q1340.349140065175 543.6633898755521 1342.0036452948314 543.4343045360613Q1343.6581505244878 543.2052191965704 1344.8544850751625 542.8488642240291L1344.8544850751625 542.8488642240291Q1346.2289971121077 542.4670553248775 1347.323515956342 542.0088846458957L1347.323515956342 542.0088846458957L1353.636089755646 553.1067966478984Q1352.8979258839531 553.844960519591 1351.2943285075169 554.7103940243344Q1349.6907311310808 555.5758275290777 1347.5016934426126 556.4158071072111Q1345.312655754144 557.2303327587342 1342.5127238270334 557.7903191441562Q1339.7127918999226 558.3248516029682 1336.5055971470504 558.3248516029682L1336.5055971470504 558.3248516029682Q1328.2585249253787 558.3248516029682 1323.116831750139 555.2958343363666Q1318.0005925015093 552.2922709963752 1315.1497527211784 547.0487621146951Q1312.3243668674577 541.830707159625 1311.357117656274 534.9072391216785Q1310.38986844509 528.0092250103421 1310.38986844509 520.1185077612117L1310.38986844509 520.1185077612117L1310.38986844509 428.48437196486026L1308.5571857291632 410.15754480558996L1327.8003542463969 408.32486208966293ZM1438.6776585599823 540.278017636409L1440.5103412759092 556.7721620797524L1421.2671727586755 556.7721620797524L1421.2671727586755 541.9325228660655L1412.6637455644625 552.1904552899348Q1411.0856021146365 553.3867898406094 1409.0747419124389 554.4813086848435Q1407.063881710241 555.5758275290777 1405.0021136548232 556.4412610338211Q1402.940345599405 557.3321484651744 1400.8785775439871 557.8157730707665Q1398.8168094885693 558.3248516029682 1397.0859424790826 558.3248516029682L1397.0859424790826 558.3248516029682Q1390.2133822943563 558.3248516029682 1383.9262624216622 556.1867217677202Q1377.639142548968 554.0231380058618 1372.9301661261 549.8486940418059Q1368.2211897032319 545.6742500777498 1365.4212577761211 539.4889459114961Q1362.6213258490104 533.3036417452424 1362.6213258490104 525.2602009364515L1362.6213258490104 525.2602009364515Q1362.6213258490104 516.7331355220688 1366.0576059413736 510.44601564937466Q1369.4938860337368 504.18434970329065 1374.8646645484673 500.0099057392346Q1380.209989136588 495.8354617751786 1386.8025561286033 493.77369371976073Q1393.4205770472286 491.7119256643428 1399.733150846533 491.7119256643428L1399.733150846533 491.7119256643428Q1404.951205801603 491.7119256643428 1408.9474722793882 492.2719120497649Q1412.9182848305634 492.80644450857704 1415.667308904454 493.54460838026984L1415.667308904454 493.54460838026984Q1418.8745036573262 494.35913403179296 1421.2671727586755 495.37729109619687L1421.2671727586755 495.37729109619687L1421.2671727586755 492.1700963433246Q1421.2671727586755 486.7738639019839 1420.630824593423 482.4466963782673Q1419.9944764281706 478.14498278116076 1418.009070152583 475.1668733677793Q1416.0491178036054 472.1887639543979 1412.3328445185311 470.63607443118195Q1408.616571233457 469.083384907966 1402.4821749204234 469.083384907966L1402.4821749204234 469.083384907966Q1397.5441131580644 469.083384907966 1392.962406368247 469.77064092643866Q1388.3806995784291 470.4578969449113 1384.7916959264055 471.2724225964344L1384.7916959264055 471.2724225964344Q1380.5917980357392 472.2905796608383 1377.0027943837156 473.3850985050725L1377.0027943837156 473.3850985050725L1370.4102273917003 461.11630587900544Q1374.431947796096 459.2836231630784 1379.5736409713356 457.80729541969276L1379.5736409713356 457.80729541969276Q1383.9771702748824 456.53459908918785 1390.0097508814756 455.4655341715638Q1396.0677854146788 454.42192318054975 1403.398516278387 454.42192318054975L1403.398516278387 454.42192318054975Q1413.9364418949674 454.42192318054975 1420.8090020796938 457.2473090342706Q1427.68156226442 460.09814881460153 1431.626920888985 465.23984198984124Q1435.5722795135503 470.3560812384709 1437.1249690367663 477.55954246912853Q1438.6776585599823 484.73754977317606 1438.6776585599823 493.54460838026984L1438.6776585599823 493.54460838026984L1438.6776585599823 540.278017636409ZM1421.2671727586755 531.6745904421962L1421.2671727586755 507.926076914975Q1418.6963261710555 507.56972194243366 1415.7691246108946 507.18791304328215L1415.7691246108946 507.18791304328215Q1413.300093729715 506.9333737771812 1410.0928989768427 506.6533805844701Q1406.8857042239704 506.373387391759 1403.398516278387 506.373387391759L1403.398516278387 506.373387391759Q1398.256823103147 506.373387391759 1394.006017359261 507.39154445616293Q1389.7552116153745 508.38424759395673 1386.6243786423327 510.6241931356454Q1383.5189995959006 512.889592603944 1381.7626786598041 516.4531423293577Q1380.0318116503174 520.0166920547714 1380.0318116503174 525.1583852300112L1380.0318116503174 525.1583852300112Q1380.0318116503174 529.2819213408469 1381.4063236872628 532.66729357999Q1382.7808357242077 536.0526658191329 1385.173504825557 538.5471506269225Q1387.5407200002962 541.0161815081019 1390.7988226063887 542.339785691827Q1394.0569252124812 543.6633898755521 1397.7986524241655 543.6633898755521L1397.7986524241655 543.6633898755521Q1399.5549733602622 543.6633898755521 1401.5149257092396 543.1543113433502Q1403.5003319848272 542.6706867377583 1405.460284333805 541.830707159625Q1407.4202366827824 541.0161815081019 1409.40564295837 539.9216626638677Q1411.3655953073476 538.8016898930234 1413.1219162434443 537.7071710487892L1413.1219162434443 537.7071710487892Q1417.2454523542801 535.0599626813391 1421.2671727586755 531.6745904421962L1421.2671727586755 531.6745904421962ZM1527.460954576003 460.8363126862944L1522.1665378411024 472.5705728535494Q1520.5120326114463 471.7305932754162 1518.2211792165374 470.91606762389307Q1515.9303258216285 470.07608804575983 1513.461294940449 469.4397398805074Q1510.9668101326595 468.8033917152549 1508.4468713982599 468.4470367427136Q1505.9269326638603 468.0652278435621 1503.6360792689513 468.0652278435621L1503.6360792689513 468.0652278435621Q1493.9381332305043 468.0652278435621 1489.8909588994986 470.96697547711324Q1485.8692384951034 473.84326918405424 1485.8692384951034 479.62131052454646L1485.8692384951034 479.62131052454646Q1485.8692384951034 483.4648534426712 1488.5164468625533 485.9847921770708Q1491.1891091566138 488.5047309114705 1495.3890070472798 490.5155911136682Q1499.6143588645562 492.5264513158659 1504.7815059664058 494.33368010518285Q1509.9741069948657 496.11545496788966 1514.9121687572247 498.58448584906915L1514.9121687572247 498.58448584906915Q1518.5011724092485 500.3153528585558 1522.1665378411024 502.708021959905Q1525.8319032729564 505.10069106125417 1528.7591048331178 508.30788581412645Q1531.686306393279 511.51508056699873 1533.5189891092061 515.5368009713942Q1535.3516718251328 519.5585213757896 1535.3516718251328 524.5983988445889L1535.3516718251328 524.5983988445889Q1535.3516718251328 533.8636281306644 1532.2462927787012 540.278017636409Q1529.115459805659 546.6924071421538 1523.7701352175386 550.688673619939Q1518.399356702808 554.6594861711142 1511.1958954721504 556.4921688870413Q1504.017888168103 558.3248516029682 1495.8471777262614 558.3248516029682L1495.8471777262614 558.3248516029682Q1492.7417986798296 558.3248516029682 1488.7964400552646 557.739411290936Q1484.8510814306994 557.1285170522938 1480.9311767327442 556.0849060612798Q1476.9858181081793 555.0412950702657 1473.3968144561557 553.5649673268802Q1469.8332647307418 552.0886395834943 1467.4405956293924 550.4595882804481L1467.4405956293924 550.4595882804481L1473.4986301625956 538.3435192140416Q1475.6876678510641 539.4634919848859 1478.7166851176657 540.4052872694597Q1481.7457023842674 541.3725364806432 1484.9528971371396 542.1107003523362Q1488.1600918900122 542.8488642240291 1491.316378789664 543.2561270497905Q1494.472665689316 543.6633898755521 1496.9671504971059 543.6633898755521L1496.9671504971059 543.6633898755521Q1501.167048387772 543.6633898755521 1505.061499159117 542.7979563708088Q1508.9559499304617 541.9325228660655 1511.934059343843 539.998024443698Q1514.9121687572247 538.0889799479407 1516.6939436199316 535.0090548281189Q1518.5011724092485 531.9291297082971 1518.5011724092485 527.4492386249199L1518.5011724092485 527.4492386249199Q1518.5011724092485 524.0638663857769 1517.075752519083 521.4930197981571Q1515.6503326289173 518.9221732105373 1513.2322096009582 516.9622208615597Q1510.7886326463888 514.9768145859721 1507.5814378935167 513.3477632829258Q1504.3742431406442 511.69325805326946 1500.8106934152304 510.1660224566636Q1497.2216897632068 508.66424078666785 1493.4799625515225 507.06064341023165Q1489.712781413228 505.45704603379556 1486.327409174085 503.52254761142814L1486.327409174085 503.52254761142814Q1483.1202144212127 501.6898648955011 1480.1421050078313 499.50082720703267Q1477.16399559445 497.3117895185643 1474.873142199541 494.56276544467374Q1472.5822888046323 491.8137413707832 1471.2077767676872 488.37746127842Q1469.8332647307418 484.94118118605684 1469.8332647307418 480.5376518825099L1469.8332647307418 480.5376518825099Q1469.8332647307418 473.5632759913432 1472.3022956119214 468.574306375764Q1474.7713264931006 463.58533676018493 1479.276671503088 460.45450378714287Q1483.7565625864652 457.349124740711 1490.0945903123795 455.87279699732534Q1496.4071641116836 454.42192318054975 1504.017888168103 454.42192318054975L1504.017888168103 454.42192318054975Q1507.5050761136863 454.42192318054975 1510.8904483528293 454.9564556393618Q1514.2758205919724 455.51644202478394 1517.381199638404 456.3818755295273Q1520.5120326114463 457.2473090342706 1523.082879199066 458.44364358494516Q1525.6282718600758 459.6399781356198 1527.460954576003 460.8363126862944L1527.460954576003 460.8363126862944ZM1609.9316767927191 460.8363126862944L1604.637260057819 472.5705728535494Q1602.9827548281626 471.7305932754162 1600.6919014332536 470.91606762389307Q1598.4010480383452 470.07608804575983 1595.9320171571655 469.4397398805074Q1593.4375323493757 468.8033917152549 1590.917593614976 468.4470367427136Q1588.3976548805765 468.0652278435621 1586.1068014856676 468.0652278435621L1586.1068014856676 468.0652278435621Q1576.4088554472205 468.0652278435621 1572.3616811162149 470.96697547711324Q1568.3399607118197 473.84326918405424 1568.3399607118197 479.62131052454646L1568.3399607118197 479.62131052454646Q1568.3399607118197 483.4648534426712 1570.9871690792697 485.9847921770708Q1573.65983137333 488.5047309114705 1577.859729263996 490.5155911136682Q1582.0850810812724 492.5264513158659 1587.2522281831223 494.33368010518285Q1592.444829211582 496.11545496788966 1597.3828909739411 498.58448584906915L1597.3828909739411 498.58448584906915Q1600.9718946259648 500.3153528585558 1604.637260057819 502.708021959905Q1608.302625489673 505.10069106125417 1611.229827049834 508.30788581412645Q1614.1570286099955 511.51508056699873 1615.9897113259224 515.5368009713942Q1617.8223940418495 519.5585213757896 1617.8223940418495 524.5983988445889L1617.8223940418495 524.5983988445889Q1617.8223940418495 533.8636281306644 1614.7170149954175 540.278017636409Q1611.5861820223754 546.6924071421538 1606.240857434255 550.688673619939Q1600.8700789195243 554.6594861711142 1593.6666176888668 556.4921688870413Q1586.4886103848191 558.3248516029682 1578.3178999429779 558.3248516029682L1578.3178999429779 558.3248516029682Q1575.212520896546 558.3248516029682 1571.2671622719809 557.739411290936Q1567.3218036474157 557.1285170522938 1563.4018989494607 556.0849060612798Q1559.4565403248955 555.0412950702657 1555.867536672872 553.5649673268802Q1552.303986947458 552.0886395834943 1549.9113178461091 550.4595882804481L1549.9113178461091 550.4595882804481L1555.9693523793123 538.3435192140416Q1558.1583900677806 539.4634919848859 1561.1874073343822 540.4052872694597Q1564.2164246009838 541.3725364806432 1567.423619353856 542.1107003523362Q1570.6308141067284 542.8488642240291 1573.7871010063807 543.2561270497905Q1576.9433879060327 543.6633898755521 1579.4378727138221 543.6633898755521L1579.4378727138221 543.6633898755521Q1583.6377706044884 543.6633898755521 1587.5322213758332 542.7979563708088Q1591.4266721471781 541.9325228660655 1594.4047815605595 539.998024443698Q1597.3828909739411 538.0889799479407 1599.1646658366478 535.0090548281189Q1600.9718946259648 531.9291297082971 1600.9718946259648 527.4492386249199L1600.9718946259648 527.4492386249199Q1600.9718946259648 524.0638663857769 1599.5464747357994 521.4930197981571Q1598.121054845634 518.9221732105373 1595.7029318176747 516.9622208615597Q1593.259354863105 514.9768145859721 1590.052160110233 513.3477632829258Q1586.8449653573607 511.69325805326946 1583.281415631947 510.1660224566636Q1579.692411979923 508.66424078666785 1575.950684768239 507.06064341023165Q1572.1835036299444 505.45704603379556 1568.7981313908015 503.52254761142814L1568.7981313908015 503.52254761142814Q1565.590936637929 501.6898648955011 1562.6128272245476 499.50082720703267Q1559.6347178111662 497.3117895185643 1557.3438644162577 494.56276544467374Q1555.0530110213488 491.8137413707832 1553.6784989844034 488.37746127842Q1552.303986947458 484.94118118605684 1552.303986947458 480.5376518825099L1552.303986947458 480.5376518825099Q1552.303986947458 473.5632759913432 1554.7730178286376 468.574306375764Q1557.2420487098173 463.58533676018493 1561.7473937198042 460.45450378714287Q1566.2272848031814 457.349124740711 1572.5653125290958 455.87279699732534Q1578.8778863283999 454.42192318054975 1586.4886103848191 454.42192318054975L1586.4886103848191 454.42192318054975Q1589.9757983304028 454.42192318054975 1593.3611705695455 454.9564556393618Q1596.7465428086887 455.51644202478394 1599.8519218551205 456.3818755295273Q1602.9827548281626 457.2473090342706 1605.5536014157826 458.44364358494516Q1608.0989940767922 459.6399781356198 1609.9316767927191 460.8363126862944L1609.9316767927191 460.8363126862944ZM1662.26494990308 458.2654660986745L1662.26494990308 556.7721620797524L1644.8544641017731 556.7721620797524L1644.8544641017731 460.09814881460153L1662.26494990308 458.2654660986745ZM1644.294477716351 437.64778554449543L1644.294477716351 419.32095838522514L1662.824936288502 419.32095838522514L1662.824936288502 437.64778554449543L1644.294477716351 437.64778554449543ZM1764.5388270224523 465.952551934924L1755.4517752226473 476.3123000652337Q1751.8882254972339 473.10510531236145 1746.9756176614849 471.09424511016374Q1742.0884637523461 469.083384907966 1736.844954870666 469.083384907966L1736.844954870666 469.083384907966Q1729.1578690344165 469.083384907966 1723.7616365930758 471.95967861490703Q1718.3399502251252 474.86142624845814 1715.0054858392025 479.79948801081713Q1711.645567526669 484.73754977317606 1710.0928780034535 491.30466283858124Q1708.5401884802375 497.84632197737636 1708.5401884802375 505.10069106125417L1708.5401884802375 505.10069106125417Q1708.5401884802375 512.6095994112329 1709.9656083704028 519.431251742739Q1711.3910282605682 526.2529040742453 1714.7764004997114 531.4709590293153Q1718.161772738854 536.7144679109954 1723.7870905196858 539.7689391042072Q1729.4378622271272 542.8488642240291 1737.8631119350696 542.8488642240291L1737.8631119350696 542.8488642240291Q1744.913849606067 542.8488642240291 1749.8264574418156 541.1943589943726Q1754.7136113509544 539.5398537647163 1757.3862736450149 537.7071710487892L1757.3862736450149 537.7071710487892L1763.97884063703 550.6377657667188Q1758.8371474617904 554.1249537123022 1752.015495130284 556.2121756943302Q1745.1938427987782 558.3248516029682 1736.5904156045651 558.3248516029682L1736.5904156045651 558.3248516029682Q1725.136148630021 558.3248516029682 1716.507267509198 553.7940526663709Q1707.903840314985 549.2632537297736 1702.176706827713 541.7034375265746Q1696.449573340441 534.1436213233756 1693.54782570689 524.2929517252678Q1690.671531999949 514.4422821271601 1690.671531999949 503.9043565105796L1690.671531999949 503.9043565105796Q1690.671531999949 494.35913403179296 1693.4714639270594 485.4248057916487Q1696.2713958541704 476.4904775515044 1701.9985293414422 469.61791736677804Q1707.7256628287143 462.7453571820517 1716.4563596559778 458.5963671446058Q1725.2125104098516 454.42192318054975 1737.048586283547 454.42192318054975L1737.048586283547 454.42192318054975Q1745.4738359914893 454.42192318054975 1752.1173108367245 457.01822369477975Q1758.7607856819602 459.6399781356198 1764.5388270224523 465.952551934924L1764.5388270224523 465.952551934924ZM1855.6129764333816 438.56412690245895L1852.863952359491 419.32095838522514Q1855.714792139822 419.040965192514 1859.6346968377768 418.86278770624335Q1863.5800554623422 418.6846102199727 1867.7544994263983 418.5318866603121Q1871.928943390454 418.4046170272616 1876.00157164807 418.3537091740414Q1880.0741999056852 418.30280132082123 1883.103217172287 418.30280132082123L1883.103217172287 418.30280132082123Q1897.6628631932629 418.30280132082123 1910.0843793789907 421.89180497284497Q1922.5058955647185 425.45535469825865 1931.5674934379128 433.2442562409485Q1940.6545452377175 441.0331577836384 1945.7707844863473 453.2255886298752Q1950.912477661587 465.41801947611197 1950.912477661587 482.5485120847076L1950.912477661587 482.5485120847076Q1950.912477661587 495.937277481619 1948.3416310739674 506.6024727312499Q1945.7707844863473 517.2676679808808 1941.2399855497504 525.5147402025525Q1936.7091866131525 533.7618124242241 1930.3457049606284 539.6925773243768Q1923.9822233081038 545.5978882979196 1916.3205913984646 549.3905233628241Q1908.6589594888248 553.2086123543387 1900.0555322946118 554.9903872170455Q1891.4521051003992 556.7721620797524 1882.288691520764 556.7721620797524L1882.288691520764 556.7721620797524L1855.6129764333816 556.7721620797524L1855.6129764333816 438.56412690245895ZM1872.5652915557068 433.06607875467785L1874.8561449506153 451.39290591394814L1874.8561449506153 542.1107003523362L1876.6888276665425 542.1107003523362Q1889.9757773570134 542.1107003523362 1899.2410066430891 539.3616762784457Q1908.4807820025542 536.612652204555 1914.5897243889779 532.0818532679577Q1920.6732128487909 527.5510543313603 1924.1094929411545 521.6202894312075Q1927.5457730335177 515.714978457665 1929.2511861163941 509.4024046583607Q1930.9311452726604 503.06437693244635 1931.312954171812 496.8536188395825Q1931.6693091443533 490.6174068201086 1931.6693091443533 485.29753615859823L1931.6693091443533 485.29753615859823Q1931.6693091443533 473.66509169778357 1929.6584489421555 463.89078387950605Q1927.6475887399577 454.1419299878387 1922.2259023720069 447.14210017006184Q1916.8296699306663 440.11681642567487 1907.1571778188293 436.22236565432996Q1897.4846857069922 432.327914882985 1882.288691520764 432.327914882985L1882.288691520764 432.327914882985Q1880.812363777378 432.327914882985 1879.157858547722 432.4297305894254Q1877.5033533180656 432.5060923692557 1876.05247950129 432.7097237821365L1876.05247950129 432.7097237821365Q1874.3979742716335 432.8879012684072 1872.5652915557068 433.06607875467785L1872.5652915557068 433.06607875467785ZM1991.231497411982 432.2515531031547L1993.0641801279087 451.6728991066592L1993.0641801279087 475.67595189998127L2003.1439350655075 475.67595189998127Q2009.1001538922703 475.67595189998127 2014.7000177464918 474.3523477162562Q2020.2744276741034 473.0287435325311 2024.6270491244297 470.12699589898Q2028.9796705747565 467.25070219203894 2031.6523328688165 462.6689954022214Q2034.2995412362668 458.0872886124038 2034.2995412362668 451.5710834002188L2034.2995412362668 451.5710834002188Q2034.2995412362668 445.5385027936257 2031.7286946486472 441.4913284626202Q2029.1578480610276 437.4696080582247 2025.0088580235813 435.07693895687555Q2020.8344140595252 432.7097237821365 2015.6163591044553 431.74247457095277Q2010.3728502227752 430.775225359769 2005.154795267705 430.775225359769L2005.154795267705 430.775225359769Q2003.6021057444893 430.775225359769 2001.7694230285622 430.8770410662095Q1999.936740312635 430.95340284603975 1998.053149743488 431.1824881855306Q1996.1695591743407 431.4115735250215 1994.387784311634 431.6915667177326Q1992.606009448927 431.97155991044366 1991.231497411982 432.2515531031547L1991.231497411982 432.2515531031547ZM2011.3910072871793 556.7721620797524L1973.821011610675 556.7721620797524L1973.821011610675 438.56412690245895L1971.0719875367843 420.2372997431886Q1973.821011610675 419.88094477064726 1977.4354691893088 419.4991358714958Q1981.0499267679427 419.14278089895447 1984.9189236126774 418.9136955594636Q1988.7624665308024 418.6846102199727 1992.5041937424864 418.5318866603121Q1996.2713748807812 418.4046170272616 1999.1985764409421 418.4046170272616L1999.1985764409421 418.4046170272616Q2009.3801470849814 418.4046170272616 2018.8490077839376 419.7282212109867Q2028.343322409504 421.0518253947117 2035.6740532732122 424.5390133402951Q2043.0047841369203 428.0262012858785 2047.4083134404675 434.10968974569187Q2051.811842744014 440.21863213211526 2051.811842744014 449.6620389044615L2051.811842744014 449.6620389044615Q2051.811842744014 459.6399781356198 2047.0010506147057 466.8688932928875Q2042.1902584853972 474.12326237676535 2034.2995412362668 477.9668052948901L2034.2995412362668 477.9668052948901L2020.1980658942728 481.9885256992855L2033.6631930710143 483.2866759564005Q2039.237602998626 484.94118118605684 2044.252026540815 487.5374817002868Q2049.2409961563944 490.1592361411269 2052.982723368079 493.9009633528112Q2056.7499045063732 497.66814449110564 2058.913488268231 502.80983766634535Q2061.05161810348 507.926076914975 2061.05161810348 514.6204596134307L2061.05161810348 514.6204596134307Q2061.05161810348 522.4093611561206 2058.9389421948417 528.5437574691541Q2056.8517202128132 534.6781537821876 2053.26271656079 539.3616762784457Q2049.6991668353758 544.0451987747035 2044.8374668528475 547.3796631606263Q2039.975766870319 550.7141275465492 2034.4268108693175 552.775895601967Q2028.9033087949263 554.837663657385 2022.9725438947737 555.8049128685686Q2017.067232921231 556.7721620797524 2011.3910072871793 556.7721620797524L2011.3910072871793 556.7721620797524ZM1993.0641801279087 489.87924294841577L1993.0641801279087 542.1107003523362L2005.8929591393983 542.1107003523362Q2014.9545570125927 542.1107003523362 2021.827117197319 540.787096168611Q2028.6996773820454 539.4634919848859 2033.3831998783032 536.3835668650642Q2038.0667223745616 533.3036417452424 2040.3830296960803 528.238310349833Q2042.7247909442092 523.1475250278133 2042.7247909442092 515.5368009713942L2042.7247909442092 515.5368009713942Q2042.7247909442092 508.66424078666785 2040.35757576947 503.8025408041392Q2037.964906668121 498.94084082161055 2033.6122852177944 495.8354617751786Q2029.2596637674676 492.7300827287467 2023.1252674544342 491.30466283858124Q2016.9908711414002 489.87924294841577 2009.5583245712521 489.87924294841577L2009.5583245712521 489.87924294841577L1993.0641801279087 489.87924294841577Z " fill="#ce8946" transform="matrix(0.42454054403654584,0,0,0.42454054403654584,0,94.80900211053934)"/></g></svg>